<?xml version="1.0" encoding="iso-8859-1"?>
<svg version="1.1" id="microscope" xmlns="http://www.w3.org/2000/svg" xmlns:xlink="http://www.w3.org/1999/xlink" x="0px" y="0px"
	 width="146" height="158" viewBox="0 0 512 512" style="fill:#fff;" xml:space="preserve">
		<path d="M267.543,156.74l-41.669-72.173c-2.761-4.782-8.876-6.422-13.661-3.66c-4.783,2.762-6.422,8.878-3.66,13.661
			l41.669,72.173c1.853,3.208,5.213,5.002,8.671,5.002c1.696,0,3.416-0.433,4.99-1.342
			C268.666,167.639,270.305,161.524,267.543,156.74z"/>
		<path d="M284.951,187.583c-1.86-1.859-4.431-2.93-7.07-2.93c-2.63,0-5.21,1.07-7.07,2.93c-1.859,1.86-2.93,4.431-2.93,7.07
			c0.001,2.629,1.071,5.209,2.93,7.07c1.86,1.859,4.44,2.93,7.07,2.93c2.64,0,5.21-1.07,7.07-2.93c1.859-1.86,2.93-4.44,2.93-7.07
			C287.881,192.023,286.811,189.443,284.951,187.583z"/>
		<path d="M492.014,389.994v-40.002c0-5.522-4.478-10.001-10.001-10.001H250c-5.522,0-10.001,4.478-10.001,10.001v40.002
			c0,5.522,4.478,10.001,10.001,10.001h38.722c-18.464,7.941-38.437,12.055-59.082,12.055c-82.517,0-149.649-67.133-149.649-149.65
			c0-56.118,31.511-107.354,80.981-132.961l69.602,120.555c5.551,9.615,15.656,14.995,26.032,14.995
			c2.102,0,4.214-0.234,6.302-0.685l18.517,32.073c2.671,4.627,6.984,7.937,12.146,9.32c1.724,0.462,3.472,0.69,5.209,0.69
			c3.466,0,6.886-0.909,9.969-2.688l30.826-17.797c9.551-5.516,12.834-17.772,7.319-27.322l-18.508-32.057
			c3.179-3.493,5.504-7.714,6.762-12.408c2.074-7.741,1.01-15.826-2.997-22.766L247.912,45.441
			c-4.006-6.939-10.477-11.904-18.217-13.979c-2.144-0.575-4.313-0.9-6.478-0.997l-10.249-17.75
			c-3.394-5.878-8.872-10.083-15.429-11.84c-6.554-1.754-13.404-0.855-19.28,2.539l-33.495,19.338
			c-12.134,7.006-16.306,22.576-9.301,34.709l7.985,13.831c-0.241,0.088-0.483,0.178-0.721,0.286
			c-33.921,15.439-63.227,39.793-84.748,70.432c-24.855,35.384-37.993,77.013-37.993,120.389
			c0,115.604,94.049,209.653,209.653,209.653c60.988,0,118.352-26.207,158.155-72.058h31.011
			c4.303,27.298,25.909,48.922,53.207,53.223v38.782H366.007c-5.522,0-10.001,4.478-10.001,10.001
			c0,5.522,4.478,10.001,10.001,10.001h116.007c5.522,0,10.001-4.478,10.001-10.001v-58.003c0-5.522-4.478-10.001-10.001-10.001
			c-20.822,0-38.3-14.543-42.842-34.002h42.842C487.535,399.994,492.014,395.517,492.014,389.994z M329.572,268.58l-30.825,17.797
			l-17.797-30.825l30.825-17.797L329.572,268.58z M216.931,51.78c1.54-0.89,3.25-1.344,4.982-1.344c0.868,0,1.743,0.114,2.604,0.345
			c2.58,0.692,4.737,2.347,6.072,4.66l84.239,145.907c1.336,2.313,1.69,5.007,0.999,7.587s-2.346,4.736-4.659,6.072l-49.613,28.645
			c-2.313,1.336-5.009,1.691-7.589,0.999c-2.58-0.69-4.736-2.346-6.072-4.659l-74.245-128.596c0-0.001-0.001-0.002-0.001-0.003
			l-4.252-7.365l-5.74-9.943c-2.757-4.775-1.115-10.904,3.66-13.661l1.091-0.63L216.931,51.78z M154.765,40.075l33.495-19.338
			c0.834-0.481,1.758-0.727,2.695-0.727c0.47,0,0.942,0.062,1.408,0.187c1.395,0.373,2.561,1.269,3.283,2.52l7.905,13.693
			L182.12,48.782l-21.431,12.373l-7.905-13.693C151.293,44.88,152.182,41.566,154.765,40.075z M229.639,452.051
			c-104.574,0-189.652-85.077-189.652-189.652c0-39.238,11.882-76.893,34.358-108.892c17.311-24.642,40.177-44.79,66.59-58.769
			l10.015,17.345c-25.542,13.418-47.27,33.206-63.273,57.735c-18.114,27.766-27.69,59.778-27.69,92.58
			c0,93.545,76.105,169.651,169.651,169.651c36.065,0,70.328-11.072,99.319-32.056h31.227
			C325.176,433.312,278.704,452.051,229.639,452.051z M472.012,379.993H260v-20.001h212.012V379.993z"/>
		<path d="M327.513,494.93c-1.86-1.86-4.429-2.93-7.07-2.93c-2.63,0-5.21,1.069-7.069,2.93c-1.86,1.86-2.931,4.44-2.931,7.07
			c0,2.63,1.07,5.21,2.931,7.069c1.87,1.86,4.439,2.931,7.069,2.931c2.63,0,5.21-1.07,7.07-2.931c1.87-1.859,2.93-4.439,2.93-7.069
			C330.443,499.37,329.383,496.79,327.513,494.93z"/>
		<path d="M271.001,491.999H91.991v-42.388c0-5.522-4.478-10.001-10.001-10.001c-5.522,0-10.001,4.478-10.001,10.001V502
			c0,5.522,4.478,10.001,10.001,10.001h189.011c5.522,0,10.001-4.478,10.001-10.001
			C281.002,496.478,276.523,491.999,271.001,491.999z"/>
</svg>
