<svg version="1.1" id="microscope" xmlns="http://www.w3.org/2000/svg" x="0" y="0" width="146" height="158" viewBox="0 0 512 512" xml:space="preserve" fill="#fff"><path d="M267.543 156.74l-41.669-72.173c-2.761-4.782-8.876-6.422-13.661-3.66-4.783 2.762-6.422 8.878-3.66 13.661l41.669 72.173a9.997 9.997 0 0013.661 3.66c4.783-2.762 6.422-8.877 3.66-13.661zm17.408 30.843a10.064 10.064 0 00-7.07-2.93c-2.63 0-5.21 1.07-7.07 2.93a10.064 10.064 0 00-2.93 7.07 10.088 10.088 0 002.93 7.07 10.08 10.08 0 007.07 2.93c2.64 0 5.21-1.07 7.07-2.93a10.08 10.08 0 002.93-7.07c0-2.63-1.07-5.21-2.93-7.07z"/><path d="M492.014 389.994v-40.002c0-5.522-4.478-10.001-10.001-10.001H250c-5.522 0-10.001 4.478-10.001 10.001v40.002c0 5.522 4.478 10.001 10.001 10.001h38.722c-18.464 7.941-38.437 12.055-59.082 12.055-82.517 0-149.649-67.133-149.649-149.65 0-56.118 31.511-107.354 80.981-132.961l69.602 120.555c5.551 9.615 15.656 14.995 26.032 14.995 2.102 0 4.214-.234 6.302-.685l18.517 32.073a19.87 19.87 0 0012.146 9.32 19.893 19.893 0 0015.178-1.998l30.826-17.797c9.551-5.516 12.834-17.772 7.319-27.322l-18.508-32.057a29.855 29.855 0 006.762-12.408c2.074-7.741 1.01-15.826-2.997-22.766L247.912 45.441c-4.006-6.939-10.477-11.904-18.217-13.979a30.194 30.194 0 00-6.478-.997l-10.249-17.75c-3.394-5.878-8.872-10.083-15.429-11.84-6.554-1.754-13.404-.855-19.28 2.539l-33.495 19.338c-12.134 7.006-16.306 22.576-9.301 34.709l7.985 13.831c-.241.088-.483.178-.721.286-33.921 15.439-63.227 39.793-84.748 70.432-24.855 35.384-37.993 77.013-37.993 120.389 0 115.604 94.049 209.653 209.653 209.653 60.988 0 118.352-26.207 158.155-72.058h31.011c4.303 27.298 25.909 48.922 53.207 53.223v38.782H366.007c-5.522 0-10.001 4.478-10.001 10.001 0 5.522 4.478 10.001 10.001 10.001h116.007c5.522 0 10.001-4.478 10.001-10.001v-58.003c0-5.522-4.478-10.001-10.001-10.001-20.822 0-38.3-14.543-42.842-34.002h42.842c5.521 0 10-4.477 10-10zM329.572 268.58l-30.825 17.797-17.797-30.825 30.825-17.797 17.797 30.825zM216.931 51.78a9.931 9.931 0 017.586-.999 9.937 9.937 0 016.072 4.66l84.239 145.907c1.336 2.313 1.69 5.007.999 7.587s-2.346 4.736-4.659 6.072l-49.613 28.645a9.931 9.931 0 01-7.589.999 9.932 9.932 0 01-6.072-4.659l-74.245-128.596-.001-.003-4.252-7.365-5.74-9.943c-2.757-4.775-1.115-10.904 3.66-13.661l1.091-.63 48.524-28.014zm-62.166-11.705l33.495-19.338a5.379 5.379 0 014.103-.54 5.369 5.369 0 013.283 2.52l7.905 13.693-21.431 12.372-21.431 12.373-7.905-13.693a5.414 5.414 0 011.981-7.387zm74.874 411.976c-104.574 0-189.652-85.077-189.652-189.652 0-39.238 11.882-76.893 34.358-108.892 17.311-24.642 40.177-44.79 66.59-58.769l10.015 17.345c-25.542 13.418-47.27 33.206-63.273 57.735-18.114 27.766-27.69 59.778-27.69 92.58 0 93.545 76.105 169.651 169.651 169.651 36.065 0 70.328-11.072 99.319-32.056h31.227c-35.008 33.319-81.48 52.058-130.545 52.058zm242.373-72.058H260v-20.001h212.012v20.001z"/><path d="M327.513 494.93a10.056 10.056 0 00-7.07-2.93c-2.63 0-5.21 1.069-7.069 2.93a10.077 10.077 0 00-2.931 7.07c0 2.63 1.07 5.21 2.931 7.069a10.092 10.092 0 007.069 2.931c2.63 0 5.21-1.07 7.07-2.931a10.029 10.029 0 002.93-7.069c0-2.63-1.06-5.21-2.93-7.07zm-56.512-2.931H91.991v-42.388c0-5.522-4.478-10.001-10.001-10.001-5.522 0-10.001 4.478-10.001 10.001V502c0 5.522 4.478 10.001 10.001 10.001h189.011c5.522 0 10.001-4.478 10.001-10.001 0-5.522-4.479-10.001-10.001-10.001z"/></svg>