<svg width="46" height="72" viewBox="0 0 46 72" fill="none" xmlns="http://www.w3.org/2000/svg">
<path d="M28.4841 67.3985C27.7641 67.1102 26.9442 67.459 26.6559 68.1804C26.4141 68.7823 25.8023 69.1873 25.133 69.1873H19.9959C19.3266 69.1873 18.7134 68.7823 18.473 68.1804C18.1847 67.459 17.3648 67.1102 16.6448 67.3985C15.9234 67.6882 15.5733 68.5066 15.863 69.2266C16.538 70.9113 18.1608 71.9998 19.9973 71.9998H25.1344C26.9709 71.9998 28.5923 70.9113 29.2687 69.2266C29.5556 68.5052 29.2055 67.6868 28.4841 67.3985Z" fill="#404040"/>
<path d="M44.999 60.1538C44.6165 58.185 43.4043 56.4792 41.669 55.4723C41.984 55.215 42.2807 54.9295 42.5507 54.6159C43.8825 53.0691 44.4731 51.023 44.1679 49.005C43.6743 45.7256 42.2779 42.66 40.1306 40.1428C38.5232 38.257 36.5461 36.7383 34.334 35.6709C37.0411 32.7839 38.7018 28.9041 38.7018 24.6431C38.7018 17.2702 33.7308 11.0348 26.9653 9.11391C27.8864 8.01281 28.3898 6.63891 28.3898 5.18625C28.3898 2.32594 26.0639 0 23.205 0C22.0504 0 20.9704 0.375469 20.1618 1.05609C19.2689 1.80844 18.7767 2.86734 18.7767 4.03594C18.7767 4.81219 19.4067 5.44219 20.1829 5.44219C20.9592 5.44219 21.5892 4.81219 21.5892 4.03594C21.5892 3.70125 21.7186 3.42281 21.9745 3.20625C22.2768 2.95172 22.7142 2.81109 23.2064 2.81109C24.5142 2.81109 25.5787 3.87563 25.5787 5.18344C25.5787 6.06938 25.2342 6.90328 24.607 7.52906C23.9798 8.15625 23.1473 8.50078 22.2614 8.50078C22.2276 8.50078 22.1925 8.50359 22.1587 8.50641C13.4456 8.72297 6.42419 15.8766 6.42419 24.6403C6.42419 28.9013 8.08497 32.7811 10.792 35.6681C8.57997 36.7355 6.60419 38.2542 4.99544 40.14C2.84809 42.6586 1.45169 45.7228 0.958093 49.0022C0.654343 51.0216 1.24356 53.0662 2.57528 54.6131C2.84528 54.9267 3.14059 55.2122 3.457 55.4695C1.72309 56.4764 0.509499 58.1808 0.126999 60.1509C-0.255501 62.1253 0.23528 64.1658 1.47419 65.7506L4.48637 69.5981C5.70278 71.1534 7.55059 71.9888 9.42653 71.9888C10.4911 71.9888 11.564 71.7187 12.5343 71.1591C15.2147 69.6108 16.3636 66.2794 15.2062 63.4092L13.3795 58.8769C13.2572 58.5745 13.1137 58.2834 12.952 58.005H23.2668C24.0431 58.005 24.6731 57.375 24.6731 56.5988C24.6731 55.8225 24.0431 55.1925 23.2668 55.1925H10.2787V52.2281C10.2787 51.847 10.5895 51.5363 10.9706 51.5363H34.1554C34.5365 51.5363 34.8473 51.847 34.8473 52.2281V55.3866C33.4523 56.1516 32.3512 57.3778 31.7465 58.8769L29.9198 63.4092C28.7625 66.2794 29.9114 69.6122 32.5917 71.1591C33.562 71.7187 34.635 71.9888 35.6995 71.9888C37.574 71.9888 39.4232 71.152 40.6397 69.5981L43.6504 65.7506C44.8907 64.1686 45.3815 62.1281 44.999 60.1538ZM9.23669 24.6417C9.23669 17.2927 15.2147 11.3147 22.5637 11.3147C29.9114 11.3147 35.8907 17.2927 35.8907 24.6417C35.8907 31.9908 29.9128 37.9688 22.5637 37.9688C15.2147 37.9688 9.23669 31.9908 9.23669 24.6417ZM10.7723 59.9316L12.599 64.4639C13.2347 66.0431 12.6032 67.8755 11.1295 68.7263C9.65575 69.577 7.75309 69.2086 6.70262 67.867L3.69044 64.0195C2.95356 63.0773 2.66106 61.8638 2.88887 60.6895C3.11669 59.5153 3.84231 58.4986 4.87731 57.8995C5.91372 57.3019 7.15684 57.1823 8.28747 57.5719C9.4195 57.9628 10.3237 58.822 10.7723 59.9316ZM34.1653 45.9141C33.389 45.9141 32.759 46.5441 32.759 47.3203V48.7266H12.3782V47.3203C12.3782 46.5441 11.7482 45.9141 10.972 45.9141C10.1957 45.9141 9.56575 46.5441 9.56575 47.3203V49.0219C8.33106 49.5647 7.46762 50.7994 7.46762 52.2309V54.2166C6.40309 54.1097 5.4145 53.6006 4.70856 52.7808C3.91122 51.8555 3.55825 50.6306 3.74106 49.4227C4.54544 44.0719 8.1145 39.6506 13.1236 37.7212C15.7786 39.645 19.0411 40.7812 22.5637 40.7812C26.0864 40.7812 29.3489 39.645 32.0053 37.7227C37.0143 39.6506 40.582 44.0719 41.3878 49.4241C41.5692 50.632 41.2162 51.8569 40.4189 52.7822C39.7129 53.602 38.7257 54.1111 37.6598 54.218V52.2323C37.6598 50.8036 36.8006 49.5717 35.5701 49.0275V47.3203C35.5715 46.5441 34.9415 45.9141 34.1653 45.9141ZM41.437 64.0195L38.4262 67.867C37.3772 69.2072 35.4745 69.577 33.9993 68.7263C32.5256 67.8755 31.8928 66.0431 32.5298 64.4639L34.3565 59.9316C34.8037 58.822 35.7093 57.9614 36.84 57.5719C37.2773 57.4214 37.7329 57.3469 38.1857 57.3469C38.9029 57.3469 39.6145 57.5339 40.2501 57.8995C41.2865 58.4972 42.0107 59.5139 42.2386 60.6895C42.4664 61.8638 42.1739 63.0773 41.437 64.0195Z" fill="#404040"/>
<path d="M29.8466 55.6073C29.5851 55.3458 29.2223 55.1953 28.8524 55.1953C28.4826 55.1953 28.1198 55.3458 27.8582 55.6073C27.5966 55.8689 27.4462 56.2317 27.4462 56.6016C27.4462 56.9728 27.5966 57.3342 27.8582 57.5958C28.1198 57.8588 28.4826 58.0078 28.8524 58.0078C29.2223 58.0078 29.5851 57.8588 29.8466 57.5958C30.1082 57.3342 30.2587 56.9714 30.2587 56.6016C30.2587 56.2317 30.1082 55.8689 29.8466 55.6073Z" fill="#404040"/>
<path d="M26.4407 29.4439C25.8375 28.9546 24.9515 29.0474 24.4621 29.6507C23.9953 30.2272 23.302 30.5577 22.5623 30.5577C21.8226 30.5577 21.1307 30.2272 20.6625 29.6507C20.1731 29.0474 19.2886 28.9546 18.6839 29.4439C18.0806 29.9333 17.9878 30.8178 18.4771 31.4225C19.4812 32.6614 20.969 33.3716 22.5609 33.3716C24.1528 33.3716 25.6406 32.6614 26.6446 31.4225C27.1368 30.8193 27.044 29.9333 26.4407 29.4439Z" fill="#404040"/>
<path d="M19.0101 23.6475C17.7346 22.3721 15.659 22.3721 14.3835 23.6475C13.8351 24.196 13.8337 25.0875 14.3835 25.636C14.932 26.1858 15.8235 26.1858 16.372 25.636C16.5506 25.4574 16.8431 25.4574 17.0217 25.636C17.2959 25.9102 17.6559 26.048 18.0159 26.048C18.3759 26.048 18.7359 25.9102 19.0101 25.636C19.5599 25.0875 19.5599 24.1974 19.0101 23.6475Z" fill="#404040"/>
<path d="M30.7438 23.6475C29.4684 22.3721 27.3927 22.3721 26.1173 23.6475C25.5688 24.196 25.5688 25.0875 26.1173 25.636C26.3915 25.9102 26.7515 26.048 27.1115 26.048C27.4715 26.048 27.8315 25.9102 28.1057 25.636C28.2843 25.4574 28.5768 25.4574 28.7554 25.636C29.3038 26.1858 30.1954 26.1844 30.7438 25.636C31.2937 25.0875 31.2937 24.1974 30.7438 23.6475Z" fill="#404040"/>
</svg>
